<svg width="125" height="48" viewBox="0 0 125 48" fill="none" xmlns="http://www.w3.org/2000/svg">
<path d="M24.276 13.6L15.33 43H10.626L1.68 13.6H7.056L12.978 35.65L18.9 13.6H24.276ZM44.3976 34.432H29.6976C29.8096 35.692 30.2856 36.658 31.1256 37.33C31.9656 38.002 33.0016 38.394 34.2336 38.506C35.4656 38.59 36.7256 38.422 38.0136 38.002C39.3296 37.554 40.5056 36.882 41.5416 35.986L44.3136 39.808C42.7736 41.096 41.2056 42.02 39.6096 42.58C38.0416 43.112 36.4876 43.378 34.9476 43.378C31.3916 43.378 28.7176 42.384 26.9256 40.396C25.1616 38.408 24.2796 35.594 24.2796 31.954C24.2796 29.882 24.6856 28.076 25.4976 26.536C26.3376 24.996 27.5136 23.806 29.0256 22.966C30.5656 22.126 32.3716 21.72 34.4436 21.748C38.9796 21.804 42.0036 23.582 43.5156 27.082C43.9356 28.09 44.2016 29.196 44.3136 30.4C44.4536 31.604 44.4816 32.948 44.3976 34.432ZM34.9056 26.452C33.1976 26.452 31.8956 26.914 30.9996 27.838C30.1316 28.762 29.6976 29.784 29.6976 30.904H40.0716C40.0716 29.756 39.6236 28.734 38.7276 27.838C37.8596 26.914 36.5856 26.452 34.9056 26.452ZM67.1836 43H62.1436V30.736C62.1436 29.588 61.9196 28.734 61.4716 28.174C61.0516 27.586 60.5196 27.194 59.8756 26.998C59.2596 26.802 58.6576 26.704 58.0696 26.704C57.5096 26.704 56.8516 26.802 56.0956 26.998C55.3676 27.194 54.7236 27.586 54.1636 28.174C53.6036 28.734 53.3236 29.588 53.3236 30.736V43H48.2836V22H53.3236V23.512C53.7996 22.868 54.5416 22.42 55.5496 22.168C56.5576 21.888 57.5236 21.748 58.4476 21.748C60.2396 21.748 61.7796 22.126 63.0676 22.882C64.3836 23.638 65.3916 24.688 66.0916 26.032C66.8196 27.376 67.1836 28.944 67.1836 30.736V43ZM73.6112 33.466V26.662H70.5452V22H73.6112V13.6H78.5672V22H81.8432V26.662H78.5672V33.466C78.5672 34.726 78.6652 35.678 78.8612 36.322C79.0572 36.966 79.3232 37.414 79.6592 37.666C80.0232 37.89 80.4152 38.016 80.8352 38.044C81.2832 38.072 81.7312 38.086 82.1792 38.086H82.8932V43.084H82.2632C80.7232 43.084 79.4072 42.972 78.3152 42.748C77.2232 42.524 76.3272 42.09 75.6272 41.446C74.9272 40.774 74.4092 39.808 74.0732 38.548C73.7652 37.26 73.6112 35.566 73.6112 33.466Z" fill="#110073"/>
<path d="M89.934 14.724H79.14V22.242H87.876V26.904H79.14V39H74.1V9.6H89.934V14.724ZM96.7715 15.522C95.9035 15.522 95.1755 15.228 94.5875 14.64C93.9995 14.052 93.7055 13.324 93.7055 12.456C93.7055 11.616 93.9995 10.902 94.5875 10.314C95.1755 9.726 95.9035 9.432 96.7715 9.432C97.6115 9.432 98.3255 9.726 98.9135 10.314C99.5015 10.902 99.7955 11.616 99.7955 12.456C99.7955 13.324 99.5015 14.052 98.9135 14.64C98.3255 15.228 97.6115 15.522 96.7715 15.522ZM99.0815 39H94.4615V18H99.0815V39ZM123.068 39H117.02L113.282 32.028L109.628 39H103.58L110.048 28.332L103.706 18H109.796L113.282 24.678L116.726 18H122.774L116.516 28.332L123.068 39Z" fill="#110073"/>
<path d="M66.2431 10.4273L65.967 10.9088C65.866 11.0873 65.6505 11.1613 65.4586 11.0906C65.0613 10.9425 64.6976 10.7304 64.3777 10.4644C64.2229 10.3364 64.1824 10.1108 64.2835 9.93573L64.5596 9.45424C64.3272 9.18488 64.1454 8.87174 64.0242 8.53166H63.4686C63.2666 8.53166 63.0915 8.38688 63.0578 8.18486C62.9905 7.78081 62.9871 7.35656 63.0578 6.93567C63.0915 6.73365 63.2666 6.5855 63.4686 6.5855H64.0242C64.1454 6.24542 64.3272 5.93228 64.5596 5.66292L64.2835 5.18143C64.1824 5.00634 64.2195 4.78074 64.3777 4.6528C64.6976 4.3868 65.0646 4.17467 65.4586 4.02652C65.6505 3.95581 65.866 4.02989 65.967 4.20834L66.2431 4.68983C66.5966 4.62586 66.9569 4.62586 67.3105 4.68983L67.5866 4.20834C67.6876 4.02989 67.9031 3.95581 68.095 4.02652C68.4923 4.17467 68.8559 4.3868 69.1758 4.6528C69.3307 4.78074 69.3711 5.00634 69.2701 5.18143L68.994 5.66292C69.2263 5.93228 69.4081 6.24542 69.5294 6.5855H70.0849C70.287 6.5855 70.462 6.73028 70.4957 6.9323C70.5631 7.33635 70.5664 7.7606 70.4957 8.18149C70.462 8.38351 70.287 8.53166 70.0849 8.53166H69.5294C69.4081 8.87174 69.2263 9.18488 68.994 9.45424L69.2701 9.93573C69.3711 10.1108 69.3341 10.3364 69.1758 10.4644C68.8559 10.7304 68.4889 10.9425 68.095 11.0906C67.9031 11.1613 67.6876 11.0873 67.5866 10.9088L67.3105 10.4273C66.9603 10.4913 66.5966 10.4913 66.2431 10.4273ZM65.8896 8.44749C67.1859 9.44414 68.664 7.966 67.6674 6.66967C66.371 5.66965 64.8929 7.15116 65.8896 8.44749ZM62.0073 13.6294L63.142 14.1951C63.4821 14.3904 63.6302 14.8045 63.4956 15.1749C63.1959 15.9897 62.6067 16.7372 62.0612 17.3904C61.812 17.6901 61.381 17.7642 61.041 17.5689L60.0612 17.0032C59.5224 17.4645 58.8961 17.8315 58.2126 18.0706V19.2019C58.2126 19.5925 57.9332 19.9292 57.5493 19.9965C56.721 20.138 55.8523 20.1447 54.9937 19.9965C54.6065 19.9292 54.3203 19.5959 54.3203 19.2019V18.0706C53.6368 17.8282 53.0105 17.4645 52.4718 17.0032L51.492 17.5655C51.1552 17.7608 50.7209 17.6867 50.4717 17.3871C49.9263 16.7339 49.3505 15.9864 49.0508 15.1749C48.9161 14.8079 49.0643 14.3937 49.4044 14.1951L50.5256 13.6294C50.3943 12.9257 50.3943 12.2018 50.5256 11.4947L49.4044 10.9257C49.0643 10.7304 48.9128 10.3162 49.0508 9.9492C49.3505 9.13437 49.9263 8.38688 50.4717 7.73367C50.7209 7.434 51.1519 7.35992 51.492 7.55521L52.4718 8.12088C53.0105 7.65959 53.6368 7.29258 54.3203 7.05352V5.91881C54.3203 5.5316 54.5964 5.19489 54.9802 5.12755C55.8085 4.98614 56.6806 4.9794 57.5392 5.12419C57.9264 5.19153 58.2126 5.52487 58.2126 5.91881V7.05015C58.8961 7.29258 59.5224 7.65622 60.0612 8.11751L61.041 7.55185C61.3777 7.35656 61.812 7.43063 62.0612 7.7303C62.6067 8.38351 63.1791 9.131 63.4787 9.94583C63.6134 10.3128 63.4821 10.727 63.142 10.9257L62.0073 11.4913C62.1386 12.1984 62.1386 12.9223 62.0073 13.6294ZM58.0476 14.3399C60.0409 11.7472 57.0813 8.78756 54.4886 10.7809C52.4953 13.3735 55.455 16.3332 58.0476 14.3399ZM66.2431 20.4915L65.967 20.973C65.866 21.1515 65.6505 21.2255 65.4586 21.1548C65.0613 21.0067 64.6976 20.7945 64.3777 20.5285C64.2229 20.4006 64.1824 20.175 64.2835 19.9999L64.5596 19.5184C64.3272 19.2491 64.1454 18.9359 64.0242 18.5958H63.4686C63.2666 18.5958 63.0915 18.4511 63.0578 18.249C62.9905 17.845 62.9871 17.4207 63.0578 16.9999C63.0915 16.7978 63.2666 16.6497 63.4686 16.6497H64.0242C64.1454 16.3096 64.3272 15.9965 64.5596 15.7271L64.2835 15.2456C64.1824 15.0705 64.2195 14.8449 64.3777 14.717C64.6976 14.451 65.0646 14.2389 65.4586 14.0907C65.6505 14.02 65.866 14.0941 65.967 14.2725L66.2431 14.754C66.5966 14.69 66.9569 14.69 67.3105 14.754L67.5866 14.2725C67.6876 14.0941 67.9031 14.02 68.095 14.0907C68.4923 14.2389 68.8559 14.451 69.1758 14.717C69.3307 14.8449 69.3711 15.0705 69.2701 15.2456L68.994 15.7271C69.2263 15.9965 69.4081 16.3096 69.5294 16.6497H70.0849C70.287 16.6497 70.462 16.7945 70.4957 16.9965C70.5631 17.4005 70.5664 17.8248 70.4957 18.2457C70.462 18.4477 70.287 18.5958 70.0849 18.5958H69.5294C69.4081 18.9359 69.2263 19.2491 68.994 19.5184L69.2701 19.9999C69.3711 20.175 69.3341 20.4006 69.1758 20.5285C68.8559 20.7945 68.4889 21.0067 68.095 21.1548C67.9031 21.2255 67.6876 21.1515 67.5866 20.973L67.3105 20.4915C66.9603 20.5555 66.5966 20.5555 66.2431 20.4915ZM65.8896 18.5083C67.1859 19.505 68.664 18.0268 67.6674 16.7305C66.371 15.7338 64.8929 17.212 65.8896 18.5083Z" fill="#110073"/>
</svg>
