<svg width="32" height="32" viewBox="0 0 32 32" fill="none" xmlns="http://www.w3.org/2000/svg">
<g clip-path="url(#clip0_91158_770)">
<path fill-rule="evenodd" clip-rule="evenodd" d="M3.80952 0C1.70558 0 0 1.70558 0 3.80952V28.1905C0 30.2944 1.70558 32 3.80952 32H16C16.4207 32 16.7619 31.6588 16.7619 31.2381V19.8095C16.7619 19.3888 16.4207 19.0476 16 19.0476H12.9524V15.2381H16C16.4207 15.2381 16.7619 14.8969 16.7619 14.4762V9.90476C16.7619 7.38004 18.8085 5.33333 21.3333 5.33333H25.9048V9.14286H24.381C22.6978 9.14286 21.3333 10.5073 21.3333 12.1905V14.4762C21.3333 14.8969 21.6745 15.2381 22.0952 15.2381H25.6565L24.5681 19.0476H22.0952C21.6745 19.0476 21.3333 19.3888 21.3333 19.8095V31.2381C21.3333 31.6588 21.6745 32 22.0952 32H28.1905C30.2944 32 32 30.2944 32 28.1905V3.80952C32 1.70558 30.2944 0 28.1905 0H3.80952Z" fill="white"/>
</g>
<defs>
<clipPath id="clip0_91158_770">
<rect width="32" height="32" fill="white"/>
</clipPath>
</defs>
</svg>
