<svg width="171" height="32" viewBox="0 0 171 32" fill="none" xmlns="http://www.w3.org/2000/svg">
<rect width="171" height="32" rx="16" fill="#FAFAFA"/>
<rect x="0.5" y="0.5" width="170" height="31" rx="15.5" stroke="#8F9092" stroke-opacity="0.15"/>
<path fill-rule="evenodd" clip-rule="evenodd" d="M32.5461 17C33.2961 17 33.9561 16.59 34.2961 15.97L37.8761 9.48C38.2461 8.82 37.7661 8 37.0061 8H22.2061L21.2661 6H17.9961V8H19.9961L23.5961 15.59L22.2461 18.03C21.5161 19.37 22.4761 21 23.9961 21H35.9961V19H23.9961L25.0961 17H32.5461ZM22.0061 24C22.0061 22.9 22.8961 22 23.9961 22C25.0961 22 25.9961 22.9 25.9961 24C25.9961 25.1 25.0961 26 23.9961 26C22.8961 26 22.0061 25.1 22.0061 24ZM32.0061 24C32.0061 22.9 32.8961 22 33.9961 22C35.0961 22 35.9961 22.9 35.9961 24C35.9961 25.1 35.0961 26 33.9961 26C32.8961 26 32.0061 25.1 32.0061 24ZM35.3061 10H23.1561L25.5261 15H32.5461L35.3061 10Z" fill="#1C2B36"/>
<path d="M52.388 21.21C51.632 21.21 50.9763 21.0397 50.421 20.699C49.8657 20.3583 49.4363 19.8893 49.133 19.292C48.8343 18.69 48.685 17.997 48.685 17.213C48.685 16.4243 48.839 15.7313 49.147 15.134C49.455 14.532 49.8867 14.0653 50.442 13.734C50.9973 13.398 51.646 13.23 52.388 13.23C53.144 13.23 53.7997 13.4003 54.355 13.741C54.9103 14.0817 55.3397 14.5507 55.643 15.148C55.9463 15.7453 56.098 16.4337 56.098 17.213C56.098 18.0017 55.944 18.697 55.636 19.299C55.3327 19.8963 54.9033 20.3653 54.348 20.706C53.7927 21.042 53.1393 21.21 52.388 21.21ZM52.388 19.831C53.1113 19.831 53.6503 19.5883 54.005 19.103C54.3643 18.613 54.544 17.983 54.544 17.213C54.544 16.4243 54.362 15.7943 53.998 15.323C53.6387 14.847 53.102 14.609 52.388 14.609C51.898 14.609 51.4943 14.721 51.177 14.945C50.8597 15.1643 50.624 15.47 50.47 15.862C50.316 16.2493 50.239 16.6997 50.239 17.213C50.239 18.0063 50.421 18.641 50.785 19.117C51.149 19.593 51.6833 19.831 52.388 19.831ZM62.9423 21V17.283C62.9423 16.989 62.9166 16.688 62.8653 16.38C62.8186 16.0673 62.7253 15.778 62.5853 15.512C62.4499 15.246 62.2563 15.0313 62.0043 14.868C61.7569 14.7047 61.4326 14.623 61.0312 14.623C60.7699 14.623 60.5226 14.6673 60.2893 14.756C60.0559 14.84 59.8506 14.9777 59.6733 15.169C59.5006 15.3603 59.3629 15.6123 59.2603 15.925C59.1623 16.2377 59.1133 16.618 59.1133 17.066L58.2033 16.723C58.2033 16.037 58.3316 15.4327 58.5883 14.91C58.8449 14.3827 59.2136 13.972 59.6943 13.678C60.1749 13.384 60.7559 13.237 61.4373 13.237C61.9599 13.237 62.3986 13.321 62.7533 13.489C63.1079 13.657 63.3949 13.8787 63.6143 14.154C63.8383 14.4247 64.0086 14.721 64.1253 15.043C64.2419 15.365 64.3213 15.68 64.3633 15.988C64.4053 16.296 64.4263 16.5667 64.4263 16.8V21H62.9423ZM57.6293 21V13.44H58.9383V15.624H59.1133V21H57.6293ZM66.3895 21V10.71H67.8525V21H66.3895ZM70.0946 12.201V10.78H71.5576V12.201H70.0946ZM70.0946 21V13.44H71.5576V21H70.0946ZM78.9657 21V17.283C78.9657 16.989 78.94 16.688 78.8887 16.38C78.842 16.0673 78.7487 15.778 78.6087 15.512C78.4734 15.246 78.2797 15.0313 78.0277 14.868C77.7804 14.7047 77.456 14.623 77.0547 14.623C76.7934 14.623 76.546 14.6673 76.3127 14.756C76.0794 14.84 75.874 14.9777 75.6967 15.169C75.524 15.3603 75.3864 15.6123 75.2837 15.925C75.1857 16.2377 75.1367 16.618 75.1367 17.066L74.2267 16.723C74.2267 16.037 74.355 15.4327 74.6117 14.91C74.8684 14.3827 75.237 13.972 75.7177 13.678C76.1984 13.384 76.7794 13.237 77.4607 13.237C77.9834 13.237 78.422 13.321 78.7767 13.489C79.1314 13.657 79.4184 13.8787 79.6377 14.154C79.8617 14.4247 80.032 14.721 80.1487 15.043C80.2654 15.365 80.3447 15.68 80.3867 15.988C80.4287 16.296 80.4497 16.5667 80.4497 16.8V21H78.9657ZM73.6527 21V13.44H74.9617V15.624H75.1367V21H73.6527ZM85.5303 21.21C84.7789 21.21 84.1186 21.0467 83.5493 20.72C82.9846 20.3887 82.5436 19.929 82.2263 19.341C81.9136 18.7483 81.7573 18.0623 81.7573 17.283C81.7573 16.457 81.9113 15.7407 82.2193 15.134C82.5319 14.5273 82.9659 14.0583 83.5213 13.727C84.0766 13.3957 84.7229 13.23 85.4603 13.23C86.2303 13.23 86.8859 13.4097 87.4273 13.769C87.9686 14.1237 88.3723 14.63 88.6383 15.288C88.9089 15.946 89.0163 16.7277 88.9603 17.633H87.4973V17.101C87.4879 16.2237 87.3199 15.575 86.9933 15.155C86.6713 14.735 86.1789 14.525 85.5163 14.525C84.7836 14.525 84.2329 14.756 83.8643 15.218C83.4956 15.68 83.3113 16.3473 83.3113 17.22C83.3113 18.0507 83.4956 18.6947 83.8643 19.152C84.2329 19.6047 84.7649 19.831 85.4603 19.831C85.9176 19.831 86.3119 19.7283 86.6433 19.523C86.9793 19.313 87.2406 19.0143 87.4273 18.627L88.8623 19.082C88.5683 19.7587 88.1226 20.2837 87.5253 20.657C86.9279 21.0257 86.2629 21.21 85.5303 21.21ZM82.8353 17.633V16.492H88.2323V17.633H82.8353ZM96.2245 21.203C95.3052 21.203 94.5562 21 93.9775 20.594C93.3988 20.188 93.0442 19.6163 92.9135 18.879L94.4115 18.648C94.5048 19.04 94.7195 19.3503 95.0555 19.579C95.3962 19.803 95.8185 19.915 96.3225 19.915C96.7798 19.915 97.1368 19.8217 97.3935 19.635C97.6548 19.4483 97.7855 19.1917 97.7855 18.865C97.7855 18.6737 97.7388 18.5197 97.6455 18.403C97.5568 18.2817 97.3678 18.1673 97.0785 18.06C96.7892 17.9527 96.3482 17.8197 95.7555 17.661C95.1068 17.493 94.5912 17.3133 94.2085 17.122C93.8305 16.926 93.5598 16.6997 93.3965 16.443C93.2378 16.1817 93.1585 15.8667 93.1585 15.498C93.1585 15.0407 93.2798 14.6417 93.5225 14.301C93.7652 13.9603 94.1058 13.6967 94.5445 13.51C94.9878 13.3233 95.5058 13.23 96.0985 13.23C96.6772 13.23 97.1928 13.321 97.6455 13.503C98.0982 13.685 98.4645 13.944 98.7445 14.28C99.0245 14.6113 99.1925 15.001 99.2485 15.449L97.7505 15.722C97.6992 15.358 97.5288 15.071 97.2395 14.861C96.9502 14.651 96.5745 14.5367 96.1125 14.518C95.6692 14.4993 95.3098 14.574 95.0345 14.742C94.7592 14.9053 94.6215 15.1317 94.6215 15.421C94.6215 15.589 94.6728 15.7313 94.7755 15.848C94.8828 15.9647 95.0882 16.0767 95.3915 16.184C95.6948 16.2913 96.1428 16.4197 96.7355 16.569C97.3702 16.7323 97.8742 16.9143 98.2475 17.115C98.6208 17.311 98.8868 17.5467 99.0455 17.822C99.2088 18.0927 99.2905 18.4217 99.2905 18.809C99.2905 19.5557 99.0175 20.1413 98.4715 20.566C97.9302 20.9907 97.1812 21.203 96.2245 21.203ZM106.145 21V17.283C106.145 16.989 106.12 16.688 106.068 16.38C106.022 16.0673 105.928 15.778 105.788 15.512C105.653 15.246 105.459 15.0313 105.207 14.868C104.96 14.7047 104.636 14.623 104.234 14.623C103.973 14.623 103.726 14.6673 103.492 14.756C103.259 14.84 103.054 14.9777 102.876 15.169C102.704 15.3603 102.566 15.6123 102.463 15.925C102.365 16.2377 102.316 16.618 102.316 17.066L101.406 16.723C101.406 16.037 101.535 15.4327 101.791 14.91C102.048 14.3827 102.417 13.972 102.897 13.678C103.378 13.384 103.959 13.237 104.64 13.237C105.163 13.237 105.602 13.321 105.956 13.489C106.311 13.657 106.598 13.8787 106.817 14.154C107.041 14.4247 107.212 14.721 107.328 15.043C107.445 15.365 107.524 15.68 107.566 15.988C107.608 16.296 107.629 16.5667 107.629 16.8V21H106.145ZM100.832 21V10.92H102.141V16.359H102.316V21H100.832ZM112.736 21.21C111.98 21.21 111.324 21.0397 110.769 20.699C110.213 20.3583 109.784 19.8893 109.481 19.292C109.182 18.69 109.033 17.997 109.033 17.213C109.033 16.4243 109.187 15.7313 109.495 15.134C109.803 14.532 110.234 14.0653 110.79 13.734C111.345 13.398 111.994 13.23 112.736 13.23C113.492 13.23 114.147 13.4003 114.703 13.741C115.258 14.0817 115.687 14.5507 115.991 15.148C116.294 15.7453 116.446 16.4337 116.446 17.213C116.446 18.0017 116.292 18.697 115.984 19.299C115.68 19.8963 115.251 20.3653 114.696 20.706C114.14 21.042 113.487 21.21 112.736 21.21ZM112.736 19.831C113.459 19.831 113.998 19.5883 114.353 19.103C114.712 18.613 114.892 17.983 114.892 17.213C114.892 16.4243 114.71 15.7943 114.346 15.323C113.986 14.847 113.45 14.609 112.736 14.609C112.246 14.609 111.842 14.721 111.525 14.945C111.207 15.1643 110.972 15.47 110.818 15.862C110.664 16.2493 110.587 16.6997 110.587 17.213C110.587 18.0063 110.769 18.641 111.133 19.117C111.497 19.593 112.031 19.831 112.736 19.831ZM121.533 21.21C120.81 21.21 120.203 21.035 119.713 20.685C119.223 20.3303 118.852 19.852 118.6 19.25C118.348 18.648 118.222 17.969 118.222 17.213C118.222 16.457 118.346 15.778 118.593 15.176C118.845 14.574 119.214 14.1003 119.699 13.755C120.189 13.405 120.791 13.23 121.505 13.23C122.214 13.23 122.826 13.405 123.339 13.755C123.857 14.1003 124.256 14.574 124.536 15.176C124.816 15.7733 124.956 16.4523 124.956 17.213C124.956 17.969 124.816 18.6503 124.536 19.257C124.261 19.859 123.866 20.335 123.353 20.685C122.844 21.035 122.238 21.21 121.533 21.21ZM117.977 24.36V13.44H119.279V18.879H119.447V24.36H117.977ZM121.33 19.887C121.797 19.887 122.182 19.768 122.485 19.53C122.793 19.292 123.022 18.9723 123.171 18.571C123.325 18.165 123.402 17.7123 123.402 17.213C123.402 16.7183 123.325 16.2703 123.171 15.869C123.022 15.4677 122.791 15.148 122.478 14.91C122.165 14.672 121.766 14.553 121.281 14.553C120.824 14.553 120.446 14.665 120.147 14.889C119.853 15.113 119.634 15.4257 119.489 15.827C119.349 16.2283 119.279 16.6903 119.279 17.213C119.279 17.7357 119.349 18.1977 119.489 18.599C119.629 19.0003 119.851 19.3153 120.154 19.544C120.457 19.7727 120.849 19.887 121.33 19.887ZM130.05 21.21C129.327 21.21 128.72 21.035 128.23 20.685C127.74 20.3303 127.369 19.852 127.117 19.25C126.865 18.648 126.739 17.969 126.739 17.213C126.739 16.457 126.863 15.778 127.11 15.176C127.362 14.574 127.731 14.1003 128.216 13.755C128.706 13.405 129.308 13.23 130.022 13.23C130.732 13.23 131.343 13.405 131.856 13.755C132.374 14.1003 132.773 14.574 133.053 15.176C133.333 15.7733 133.473 16.4523 133.473 17.213C133.473 17.969 133.333 18.6503 133.053 19.257C132.778 19.859 132.384 20.335 131.87 20.685C131.362 21.035 130.755 21.21 130.05 21.21ZM126.494 24.36V13.44H127.796V18.879H127.964V24.36H126.494ZM129.847 19.887C130.314 19.887 130.699 19.768 131.002 19.53C131.31 19.292 131.539 18.9723 131.688 18.571C131.842 18.165 131.919 17.7123 131.919 17.213C131.919 16.7183 131.842 16.2703 131.688 15.869C131.539 15.4677 131.308 15.148 130.995 14.91C130.683 14.672 130.284 14.553 129.798 14.553C129.341 14.553 128.963 14.665 128.664 14.889C128.37 15.113 128.151 15.4257 128.006 15.827C127.866 16.2283 127.796 16.6903 127.796 17.213C127.796 17.7357 127.866 18.1977 128.006 18.599C128.146 19.0003 128.368 19.3153 128.671 19.544C128.975 19.7727 129.367 19.887 129.847 19.887ZM135.159 12.201V10.78H136.622V12.201H135.159ZM135.159 21V13.44H136.622V21H135.159ZM144.03 21V17.283C144.03 16.989 144.004 16.688 143.953 16.38C143.906 16.0673 143.813 15.778 143.673 15.512C143.538 15.246 143.344 15.0313 143.092 14.868C142.845 14.7047 142.52 14.623 142.119 14.623C141.858 14.623 141.61 14.6673 141.377 14.756C141.144 14.84 140.938 14.9777 140.761 15.169C140.588 15.3603 140.451 15.6123 140.348 15.925C140.25 16.2377 140.201 16.618 140.201 17.066L139.291 16.723C139.291 16.037 139.419 15.4327 139.676 14.91C139.933 14.3827 140.301 13.972 140.782 13.678C141.263 13.384 141.844 13.237 142.525 13.237C143.048 13.237 143.486 13.321 143.841 13.489C144.196 13.657 144.483 13.8787 144.702 14.154C144.926 14.4247 145.096 14.721 145.213 15.043C145.33 15.365 145.409 15.68 145.451 15.988C145.493 16.296 145.514 16.5667 145.514 16.8V21H144.03ZM138.717 21V13.44H140.026V15.624H140.201V21H138.717ZM150.452 24.57C150.046 24.57 149.652 24.507 149.269 24.381C148.891 24.255 148.546 24.0683 148.233 23.821C147.921 23.5783 147.662 23.2773 147.456 22.918L148.807 22.232C148.971 22.554 149.204 22.7897 149.507 22.939C149.811 23.0883 150.13 23.163 150.466 23.163C150.882 23.163 151.236 23.0883 151.53 22.939C151.824 22.7943 152.046 22.575 152.195 22.281C152.349 21.987 152.424 21.623 152.419 21.189V19.075H152.594V13.44H153.889V21.203C153.889 21.4037 153.882 21.595 153.868 21.777C153.854 21.959 153.829 22.141 153.791 22.323C153.684 22.8317 153.479 23.2517 153.175 23.583C152.877 23.9143 152.494 24.1617 152.027 24.325C151.565 24.4883 151.04 24.57 150.452 24.57ZM150.34 21.21C149.636 21.21 149.027 21.035 148.513 20.685C148.005 20.335 147.61 19.859 147.33 19.257C147.055 18.6503 146.917 17.969 146.917 17.213C146.917 16.4523 147.057 15.7733 147.337 15.176C147.617 14.574 148.014 14.1003 148.527 13.755C149.045 13.405 149.659 13.23 150.368 13.23C151.082 13.23 151.682 13.405 152.167 13.755C152.657 14.1003 153.026 14.574 153.273 15.176C153.525 15.778 153.651 16.457 153.651 17.213C153.651 17.969 153.525 18.648 153.273 19.25C153.021 19.852 152.65 20.3303 152.16 20.685C151.67 21.035 151.064 21.21 150.34 21.21ZM150.543 19.887C151.024 19.887 151.416 19.7727 151.719 19.544C152.023 19.3153 152.244 19.0003 152.384 18.599C152.524 18.1977 152.594 17.7357 152.594 17.213C152.594 16.6903 152.522 16.2283 152.377 15.827C152.237 15.4257 152.018 15.113 151.719 14.889C151.425 14.665 151.05 14.553 150.592 14.553C150.107 14.553 149.708 14.672 149.395 14.91C149.083 15.148 148.849 15.4677 148.695 15.869C148.546 16.2703 148.471 16.7183 148.471 17.213C148.471 17.7123 148.546 18.165 148.695 18.571C148.849 18.9723 149.078 19.292 149.381 19.53C149.689 19.768 150.077 19.887 150.543 19.887Z" fill="#0C0D13"/>
</svg>
