<svg width="32" height="32" viewBox="0 0 32 32" fill="none" xmlns="http://www.w3.org/2000/svg">
<g clip-path="url(#clip0_91158_643)">
<path d="M22.4233 11.3364L14.3087 17.9691L13.9269 18.2818C13.843 18.3483 13.7883 18.4448 13.7742 18.5509L13.6887 19.2564L13.4542 21.2382C13.4563 21.2623 13.4488 21.2863 13.4333 21.3049C13.4178 21.3234 13.3956 21.3351 13.3714 21.3373C13.3473 21.3394 13.3233 21.3319 13.3048 21.3164C13.2862 21.3009 13.2745 21.2787 13.2724 21.2545L12.6124 19.2727L11.9305 17.2455C11.9014 17.1546 11.9052 17.0564 11.941 16.968C11.9769 16.8797 12.0427 16.8067 12.1269 16.7618L20.5705 11.9218L22.1596 11.0127C22.3905 10.8782 22.6269 11.1691 22.4233 11.3364Z" fill="#192681"/>
<path d="M27.6364 0H4.36364C3.20633 0 2.09642 0.459739 1.27808 1.27808C0.459739 2.09642 0 3.20633 0 4.36364L0 27.6364C0 28.7937 0.459739 29.9036 1.27808 30.7219C2.09642 31.5403 3.20633 32 4.36364 32H27.6364C28.7937 32 29.9036 31.5403 30.7219 30.7219C31.5403 29.9036 32 28.7937 32 27.6364V4.36364C32 3.20633 31.5403 2.09642 30.7219 1.27808C29.9036 0.459739 28.7937 0 27.6364 0ZM25.98 9.26182L22.8564 23.0636C22.7091 23.7109 21.8873 24.0036 21.3109 23.6091L16.5945 20.4091L14.1927 22.68C14.0948 22.7719 13.9759 22.8385 13.8464 22.8741C13.7169 22.9096 13.5807 22.913 13.4495 22.884C13.3184 22.855 13.1963 22.7944 13.0939 22.7075C12.9915 22.6207 12.9118 22.5101 12.8618 22.3855L11.9945 19.84L11.1273 17.2945L6.47818 16.0218C6.34819 15.9934 6.23122 15.9229 6.14546 15.8212C6.05969 15.7195 6.00993 15.5923 6.00392 15.4594C5.9979 15.3264 6.03597 15.1953 6.1122 15.0862C6.18844 14.9772 6.29856 14.8964 6.42545 14.8564L24.3855 8.38545L24.7164 8.26727C25.4127 8.02364 26.1327 8.58727 25.98 9.26182Z" fill="#192681"/>
</g>
<defs>
<clipPath id="clip0_91158_643">
<rect width="32" height="32" fill="white"/>
</clipPath>
</defs>
</svg>
